<?xml version="1.0" encoding="UTF-8" standalone="no"?>
<!-- Created with Inkscape (http://www.inkscape.org/) -->

<svg
   xmlns:dc="http://purl.org/dc/elements/1.1/"
   xmlns:cc="http://creativecommons.org/ns#"
   xmlns:rdf="http://www.w3.org/1999/02/22-rdf-syntax-ns#"
   xmlns:svg="http://www.w3.org/2000/svg"
   xmlns="http://www.w3.org/2000/svg"
   xmlns:sodipodi="http://sodipodi.sourceforge.net/DTD/sodipodi-0.dtd"
   xmlns:inkscape="http://www.inkscape.org/namespaces/inkscape"
   version="1.1"
   id="svg314"
   width="259"
   height="144"
   viewBox="0 0 259 144"
   sodipodi:docname="logo.svg"
   inkscape:version="0.92.3 (2405546, 2018-03-11)">
  <metadata
     id="metadata320">
    <rdf:RDF>
      <cc:Work
         rdf:about="">
        <dc:format>image/svg+xml</dc:format>
        <dc:type
           rdf:resource="http://purl.org/dc/dcmitype/StillImage" />
        <dc:title />
      </cc:Work>
    </rdf:RDF>
  </metadata>
  <defs
     id="defs318" />
  <sodipodi:namedview
     pagecolor="#ffffff"
     bordercolor="#666666"
     borderopacity="1"
     objecttolerance="10"
     gridtolerance="10"
     guidetolerance="10"
     inkscape:pageopacity="0"
     inkscape:pageshadow="2"
     inkscape:window-width="1600"
     inkscape:window-height="835"
     id="namedview316"
     showgrid="false"
     inkscape:zoom="1.48"
     inkscape:cx="129.5"
     inkscape:cy="72"
     inkscape:window-x="0"
     inkscape:window-y="0"
     inkscape:window-maximized="1"
     inkscape:current-layer="svg314" />
  <path
     style="fill:#000000;stroke-width:0.6570555"
     d="M 49.989317,74.794147 V 22.592331 h 77.111793 77.11178 V 74.794147 126.99597 H 127.10111 49.989317 Z m 11.572663,26.843873 1.527405,-0.70707 V 74.069123 47.2073 l -1.56212,-0.723149 c -0.859162,-0.397732 -2.466898,-0.516478 -3.572747,-0.263879 l -2.010623,0.459271 v 27.419847 27.41984 l 1.339781,0.31421 c 2.327657,0.54588 2.715252,0.52817 4.278304,-0.19542 z m 19.411426,-0.0312 c 1.258763,-0.82024 1.175602,-1.2893 -1.450147,-8.178776 -0.790442,-2.07399 -1.974118,-5.239073 -2.630385,-7.033515 -0.656267,-1.794394 -2.280893,-6.115919 -3.610285,-9.603334 l -2.417077,-6.340766 4.540116,-9.247279 c 2.497051,-5.086002 4.900755,-9.762359 5.341537,-10.391905 2.320889,-3.314817 -0.188039,-5.872552 -4.490541,-4.577886 -1.941214,0.584128 -2.575978,1.496863 -6.500879,9.347639 l -4.34961,8.7003 0.187431,7.250258 c 0.169209,6.545422 0.392534,7.778876 2.297238,12.68794 1.160389,2.990729 3.033375,7.999968 4.162178,11.131639 1.229869,3.41206 2.529637,5.936035 3.243291,6.298005 1.674005,0.8491 4.339695,0.82926 5.677133,-0.0423 z m 8.792491,-0.13177 c 1.022747,-1.24529 1.022747,-47.76643 0,-49.011709 -0.762724,-0.928682 -3.3413,-1.155234 -4.893597,-0.429948 -0.832709,0.389067 -0.941886,3.229847 -0.941886,24.505857 0,17.751118 0.187488,24.29405 0.714552,24.9358 0.922999,1.12385 4.197922,1.12385 5.120931,0 z m 17.458233,-0.3746 c 0.99237,-1.210615 0.91178,-5.262735 -0.12048,-6.058305 -0.46396,-0.35757 -3.69128,-0.655131 -7.171828,-0.661241 -6.90905,-0.01215 -7.81386,0.463051 -7.81386,4.103481 0,3.301515 1.52467,3.985775 8.308028,3.728545 3.73885,-0.14178 6.35311,-0.56959 6.79814,-1.11248 z m 7.11377,0.49414 c 1.06628,-0.69482 1.15151,-1.623235 1.1481,-12.506694 -0.003,-9.01138 -0.21134,-12.241001 -0.89318,-13.832839 -0.48923,-1.142189 -0.88951,-2.386569 -0.88951,-2.765306 0,-0.378737 -0.67814,-2.49376 -1.50698,-4.70005 -1.26454,-3.366165 -1.64769,-3.869234 -2.38182,-3.127378 -0.7258,0.733414 -0.87487,3.899703 -0.87487,18.581768 0,17.675539 0.002,17.698519 1.33979,18.353409 1.81002,0.88586 2.69555,0.88521 4.05847,-0.003 z m 18.06191,-0.69846 c 0.36605,-0.4457 0.33082,-1.289915 -0.0977,-2.342735 -0.36851,-0.90528 -1.23519,-3.27727 -1.92596,-5.271088 -0.69076,-1.993826 -1.49463,-4.277648 -1.78637,-5.075178 -0.29174,-0.79753 -1.09561,-3.081361 -1.78637,-5.075178 -0.69076,-1.993816 -1.49115,-4.277647 -1.77862,-5.075177 -0.52969,-1.469496 -0.70746,-1.991317 -4.19923,-12.325428 -4.86937,-14.411245 -5.00114,-14.610257 -9.27815,-14.013341 -2.11709,0.29547 -2.45256,1.945811 -1.1258,5.538448 1.46795,3.974956 2.48676,6.807415 3.17877,8.837414 0.33982,0.996912 1.01928,2.954476 1.50988,4.350153 0.4906,1.395669 3.02748,8.736551 5.63751,16.313069 3.52043,10.219306 5.10675,14.014271 6.14489,14.700501 1.45386,0.96103 4.51292,0.64916 5.50718,-0.56145 z m 10.14444,0.7419 1.52741,-0.70707 -0.009,-26.300109 c -0.005,-14.465066 -0.20599,-26.666952 -0.44659,-27.115308 -0.67924,-1.265682 -3.92839,-1.862221 -5.69316,-1.045257 l -1.59209,0.737024 V 74.074564 100.9418 l 1.33978,0.65571 c 1.79339,0.87771 3.04288,0.88811 4.87376,0.0405 z m 27.98651,0 1.52741,-0.70707 V 89.758004 c 0,-8.500907 -0.21273,-11.669608 -0.88952,-13.249649 -0.48923,-1.142189 -0.89117,-2.628402 -0.89318,-3.3027 -0.002,-0.674307 -0.27162,-1.427652 -0.59913,-1.674099 -0.3275,-0.246455 -0.59546,-0.936133 -0.59546,-1.532616 0,-0.596493 -0.49642,-2.453238 -1.10317,-4.126113 -0.60673,-1.672865 -1.27677,-3.639664 -1.48895,-4.370665 -0.21219,-0.730993 -0.7206,-1.193337 -1.12981,-1.027435 -1.02537,0.41573 -1.39069,39.397298 -0.38307,40.875583 0.79175,1.16159 3.37786,1.29554 5.55488,0.28773 z m 26.98323,0.25011 1.33978,-0.43717 V 81.277627 c 0,-12.107487 -0.22856,-20.345362 -0.57168,-20.603561 -0.63455,-0.477513 -2.70332,4.293793 -3.30289,7.617639 -0.2119,1.174621 -0.63259,2.32181 -0.9349,2.549302 -0.30231,0.227483 -0.5513,0.965317 -0.55331,1.639615 -0.002,0.674307 -0.40396,2.16052 -0.89319,3.3027 -0.68037,1.588404 -0.88952,4.790304 -0.88952,13.617593 0,11.290695 0.0291,11.555095 1.33978,12.196595 1.62593,0.79574 2.70312,0.86585 4.46593,0.29064 z M 185.06004,90.840029 c 0.10974,-0.944487 -1.41654,-6.980325 -3.39173,-13.412964 -1.9752,-6.432648 -3.7694,-12.596022 -3.98711,-13.696393 -0.21771,-1.100363 -0.6341,-2.179968 -0.92533,-2.399123 -0.29123,-0.219146 -0.53115,-0.950148 -0.53317,-1.624455 -0.002,-0.674298 -0.36257,-2.0634 -0.80123,-3.08689 -0.43865,-1.023487 -0.99073,-2.798025 -1.22683,-3.943415 -0.23611,-1.145392 -0.96562,-2.999649 -1.62115,-4.120572 -1.03241,-1.765365 -1.58729,-2.038043 -4.1473,-2.038043 -2.04032,0 -3.05862,0.327414 -3.28868,1.057409 -0.28866,0.915889 1.89958,9.169306 4.23696,15.980682 0.41053,1.196295 1.21493,3.806385 1.78758,5.800201 0.57265,1.993826 1.41048,4.653225 1.86184,5.90978 0.45136,1.256555 0.82065,2.741043 0.82065,3.298861 0,0.557819 0.22541,1.324167 0.50091,1.702992 0.27549,0.378825 1.10599,2.972602 1.84555,5.763949 0.73956,2.791355 1.78694,5.49736 2.32752,6.013344 0.56773,0.54191 2.11465,0.848142 3.66243,0.725024 2.30442,-0.183298 2.7075,-0.453558 2.87909,-1.930387 z M 132.84432,71.065365 c -0.0974,-19.487379 -0.0915,-19.449801 -3.06365,-19.449801 -3.06562,0 -3.26039,0.633866 -3.47172,11.298395 -0.19353,9.767551 0.27453,14.300483 1.93797,18.767953 3.17997,8.540373 3.47882,9.159596 4.07203,8.437292 0.39793,-0.484511 0.58439,-7.246948 0.52537,-19.053839 z m 55.88667,10.158243 c 0,-0.697777 0.26795,-1.470322 0.59546,-1.716777 0.3275,-0.246447 0.5971,-0.999792 0.59913,-1.67409 0.002,-0.674307 0.40395,-2.16052 0.89318,-3.3027 0.48924,-1.142188 0.89861,-2.447233 0.90973,-2.900105 0.0111,-0.452872 0.53793,-2.128449 1.1707,-3.723509 0.63278,-1.595051 1.1596,-3.451805 1.17072,-4.126104 0.0111,-0.674306 0.28816,-1.427643 0.61566,-1.674098 0.3275,-0.246446 0.60455,-0.999791 0.61566,-1.674098 0.0111,-0.674298 0.53793,-2.531043 1.17071,-4.126104 0.63279,-1.595054 1.1596,-3.312354 1.17071,-3.816219 0.0112,-0.503867 0.33045,-1.520997 0.70964,-2.260292 0.37919,-0.739294 0.52158,-1.876782 0.31642,-2.52775 -0.54,-1.713373 -5.8382,-1.643968 -7.12952,0.09339 -0.52202,0.702336 -2.67407,6.94234 -4.78235,13.866676 l -3.83323,12.589702 1.39643,4.338629 c 0.76806,2.386252 1.72568,4.821636 2.12804,5.411966 0.63995,0.938862 0.82879,0.911518 1.50726,-0.218248 0.4266,-0.710367 0.77565,-1.862494 0.77565,-2.560272 z m -86.37587,-0.941151 c 0.38873,-0.570319 0.62251,-2.283188 0.51951,-3.806385 l -0.18729,-2.769443 -3.852108,-0.219974 c -5.35955,-0.306064 -6.39176,0.127766 -6.89116,2.896276 -0.340241,1.886157 -0.171303,2.558008 0.91172,3.625807 1.69638,1.672531 8.413948,1.866094 9.499328,0.273719 z m 55.45282,-5.313779 c 0.47281,-4.313294 -0.53227,-5.249691 -5.63477,-5.249691 -5.37392,0 -6.31514,0.688182 -6.31514,4.617341 0,1.713943 0.18798,3.345151 0.41773,3.624892 0.22975,0.279741 2.84232,0.415685 5.80571,0.302093 l 5.38799,-0.206531 z m -51.21098,-15.42555 c 0.83875,-0.546559 1.15176,-1.524843 1.15176,-3.599617 0,-3.828552 -0.98665,-4.350151 -8.228768,-4.350151 -5.64063,0 -5.97144,0.08584 -6.88692,1.787054 -1.263553,2.348039 -1.213175,3.411028 0.25244,5.326484 1.08487,1.417845 1.81801,1.586767 6.88692,1.586767 3.120038,0 6.191098,-0.337739 6.824568,-0.750537 z m 55.37758,-5.075177 c 0.87615,-0.570936 1.15176,-1.529443 1.15176,-4.005584 0,-4.187001 -0.95278,-4.669209 -9.22583,-4.669209 -7.11403,0 -8.04244,0.587689 -8.04244,5.090937 0,1.913493 0.33303,3.04847 1.04205,3.551292 1.36982,0.971455 13.59312,0.99786 15.07446,0.03256 z"
     id="path324"
     inkscape:connector-curvature="0" />
  <path
     style="fill:#333333;stroke-width:0.67567569"
     d="M 50.445946,74.77027 V 23.081081 h 76.689194 76.68918 V 74.77027 126.45946 H 127.13514 50.445946 Z m 12.837838,-0.669484 c 0,-30.312927 0.38663,-28.046732 -4.784991,-28.046732 h -2.647442 v 27.995661 27.995665 l 1.858108,0.23111 c 1.02196,0.12711 2.694257,-0.0345 3.716217,-0.35906 l 1.858108,-0.59017 z m 17.256443,28.024194 c 2.276001,-0.86534 2.354168,-0.52877 -4.180178,-17.998877 L 71.266828,70.508962 75.890171,61.15313 c 6.958858,-14.082001 6.538603,-12.845977 4.918538,-14.466042 -1.088719,-1.08872 -1.871312,-1.295328 -3.548673,-0.936868 -1.18356,0.252933 -2.489952,0.731159 -2.903093,1.062725 -0.41314,0.331566 -2.653772,4.283826 -4.979182,8.782801 l -4.228016,8.179955 0.315308,7.862149 c 0.297706,7.423255 0.507574,8.378632 3.759469,17.114151 1.894287,5.0886 3.912885,10.158418 4.485771,11.266259 1.357292,2.62471 3.626508,3.32466 6.829934,2.10672 z m 8.732045,-0.22583 c 1.146948,-0.83867 1.269081,-2.394028 1.525389,-19.425677 0.153239,-10.182707 0.03037,-21.2505 -0.273036,-24.595095 L 89.972973,51.797297 87.438,51.58752 c -2.241968,-0.18553 -2.618752,0.0097 -3.259801,1.689189 -0.481263,1.260857 -0.65115,9.683794 -0.505567,25.066016 0.186386,19.693586 0.371217,23.263035 1.232773,23.807225 1.422713,0.89863 2.911887,0.8131 4.366867,-0.2508 z m 17.380868,-0.16768 c 0.62679,-0.18475 1.27231,-1.00565 1.43449,-1.824227 l 0.29487,-1.488324 0.51598,1.572108 c 0.28378,0.864663 1.25445,1.852883 2.15704,2.196043 2.60297,0.98965 4.10333,-0.2664 4.64673,-3.890104 0.74502,-4.968094 -0.17859,-21.739793 -1.38862,-25.215885 -2.55231,-7.332085 -3.21965,-8.783784 -4.03786,-8.783784 -1.34006,0 -1.69955,3.861662 -1.79266,19.256757 -0.0472,7.804054 -0.22819,13.639831 -0.40221,12.968385 -0.45842,-1.768858 -2.98929,-2.495412 -8.692454,-2.495412 -4.12268,0 -5.265925,0.242345 -6.374932,1.351351 -2.332652,2.332649 -1.401121,6.189952 1.689189,6.994632 1.448545,0.37719 10.063157,-0.0853 11.950437,-0.64154 z m 35.58387,0.33756 2.12785,-0.74177 V 75.423834 c 0,-15.195459 -0.27239,-26.61989 -0.65895,-27.636604 -0.53123,-1.397259 -1.10983,-1.733176 -2.98527,-1.733176 -4.79725,0 -4.46388,-2.095256 -4.46388,28.056524 v 27.236262 l 1.8581,0.67865 c 1.02196,0.37325 1.88875,0.70264 1.92621,0.73198 0.0374,0.0293 1.02562,-0.28046 2.19594,-0.68844 z m 27.70271,0 2.12785,-0.74177 V 89.816347 c 0,-10.430521 -0.4442,-14.438745 -2.04182,-18.424455 -0.29792,-0.743243 -1.23205,-3.555743 -2.07586,-6.25 -0.8438,-2.694257 -1.9028,-4.898649 -2.35333,-4.898649 -1.07114,0 -1.90947,17.244797 -1.5144,31.151804 0.33813,11.902673 0.65847,12.486403 5.85756,10.673983 z m 28.31028,0.0753 c 0.65678,-0.007 0.84229,-4.479286 0.83425,-20.110576 -0.005,-11.055743 -0.27707,-20.522497 -0.60305,-21.03723 -0.82686,-1.305611 -1.68561,0.458994 -4.51128,9.27004 -2.26666,7.067932 -2.30776,7.407882 -2.30776,19.091214 0,11.663082 0.0297,11.909772 1.52027,12.645002 0.83615,0.41243 2.12838,0.61507 2.87162,0.45032 0.74325,-0.16475 1.73142,-0.3037 2.19595,-0.30877 z m -66.12371,-0.62338 c 1.27187,-0.80546 1.25812,-0.8536 -6.96596,-24.385845 -9.07807,-25.975835 -8.77237,-25.337838 -12.14074,-25.337838 -1.69072,0 -2.87591,0.391329 -3.32067,1.09642 -0.52556,0.833181 1.1601,6.411312 7.02095,23.233541 4.24191,12.175417 8.24019,23.008039 8.88506,24.072502 0.9091,1.50059 1.66806,1.93305 3.37838,1.92503 1.21324,-0.005 2.62758,-0.2774 3.14298,-0.60381 z m 52.87014,-9.66825 c 0.65438,-1.058818 0.21779,-3.160224 -2.9174,-14.041919 -7.02744,-24.391011 -9.02394,-30.190961 -10.70154,-31.088793 -1.73053,-0.926149 -4.22924,-0.834541 -5.65402,0.207289 -1.13046,0.826605 -1.13588,1.111082 -0.0976,5.118063 0.60468,2.333546 2.61713,9.160965 4.47211,15.172044 8.09257,26.224045 7.62345,24.943498 9.40198,25.664518 1.42821,0.579 4.90432,-0.07317 5.49643,-1.031202 z M 132.86916,72.574324 c -0.005,-9.940878 -0.19257,-18.758446 -0.41665,-19.594594 -0.32146,-1.1995 -0.89329,-1.520271 -2.7102,-1.520271 -3.40588,0 -3.782,1.65248 -3.46021,15.202703 0.25062,10.552889 0.42646,11.898368 2.16351,16.554054 2.31006,6.191437 2.94135,7.432433 3.78086,7.432433 0.40274,0 0.64838,-6.908259 0.64269,-18.074325 z m 56.0903,9.152231 c 0,-0.677258 0.26673,-1.759347 0.59273,-2.404642 0.32601,-0.645295 0.90705,-2.237454 1.29122,-3.538129 0.38416,-1.300676 1.59816,-5.253379 2.69779,-8.783784 1.09961,-3.530405 2.8285,-9.087201 3.84198,-12.348435 1.01347,-3.261235 1.67413,-6.368728 1.46814,-6.905541 -0.51263,-1.335886 -3.35633,-1.950858 -5.63989,-1.21967 -1.72197,0.551368 -2.19338,1.517928 -5.38722,11.045701 -5.32764,15.893265 -5.45138,16.637329 -3.61389,21.730159 2.0094,5.56926 2.70817,6.44691 3.869,4.859387 0.48407,-0.662017 0.88014,-1.757788 0.88014,-2.435046 z m -86.382,-1.330727 c 0.32197,-0.492705 0.50619,-2.264071 0.40938,-3.936369 l -0.17603,-3.04054 -4.48344,-0.198027 c -5.432874,-0.239962 -6.847053,0.73537 -6.532066,4.50504 0.176807,2.115986 0.52689,2.564269 2.569561,3.290347 2.797049,0.994225 7.383885,0.647695 8.212595,-0.620451 z m 55.30092,-5.490423 c 0,-1.969594 -0.36487,-3.945946 -0.81081,-4.391891 -0.46683,-0.466831 -2.70271,-0.810811 -5.27027,-0.810811 -2.56757,0 -4.80344,0.34398 -5.27027,0.810811 -0.44595,0.445945 -0.81081,2.422297 -0.81081,4.391891 v 3.581081 h 6.08108 6.08108 z m -50.8446,-15.512127 c 0.46453,-0.366769 0.8446,-1.987168 0.8446,-3.600887 0,-3.80918 -1.01092,-4.332932 -8.363214,-4.332932 -5.175257,0 -5.854378,0.14995 -6.801177,1.501694 -2.412905,3.444904 -0.667884,6.967944 3.677903,7.425354 3.438094,0.361872 9.661228,-0.218946 10.641888,-0.993229 z m 54.51683,-4.538717 c 1.53514,-0.58366 1.73317,-1.037421 1.73317,-3.97132 0,-4.465825 -0.86546,-5.042601 -7.99929,-5.331037 -7.89357,-0.319153 -9.16206,0.364862 -9.43496,5.087679 -0.18253,3.158788 -0.0372,3.606622 1.35135,4.163727 2.09081,0.838872 12.18309,0.874706 14.34973,0.05095 z"
     id="path363"
     inkscape:connector-curvature="0" />
  <path
     style="fill:#ffffff;stroke-width:0.67567569"
     d="M 75.224999,100.61486 C 74.394019,99.778716 72.072247,94.685811 70.065506,89.297297 66.515787,79.765566 66.410393,79.280221 66.177295,71.391892 l -0.239592,-8.108108 3.929961,-7.374769 c 4.254878,-7.984494 6.453096,-10.290645 9.161151,-9.610967 0.920415,0.23101 1.826996,0.820071 2.014625,1.309025 0.18763,0.488955 -2.115151,5.767938 -5.11729,11.731076 l -5.458435,10.842067 5.13294,13.781514 c 6.538256,17.55467 6.27993,16.58529 4.651912,17.45658 -2.027764,1.08522 -3.362565,0.87191 -5.027568,-0.80345 z"
     id="path365"
     inkscape:connector-curvature="0" />
  <path
     style="fill:#ffffff;stroke-width:0.67567569"
     d="M 57.709459,101.66937 C 56.607893,101.38151 56.527027,99.489628 56.527027,74.006201 V 46.65203 l 2.871622,0.207769 2.871621,0.207769 0.176684,26.871879 0.176685,26.871883 -1.740941,0.6619 c -0.957518,0.36405 -1.79716,0.62663 -1.865873,0.58353 -0.06871,-0.0431 -0.657028,-0.21743 -1.307366,-0.38739 z"
     id="path367"
     inkscape:connector-curvature="0" />
  <path
     style="fill:#ffffff;stroke-width:0.67567569"
     d="M 85.114201,101.29054 C 84.464366,100.28649 83.9658,57.523153 84.566248,54.291114 c 0.378595,-2.037875 0.60651,-2.217412 2.573218,-2.027027 l 2.157831,0.208886 0.545677,5.067568 c 0.300121,2.787162 0.441162,13.674974 0.313424,24.195138 -0.192787,15.877407 -0.40032,19.233871 -1.221352,19.753171 -1.399962,0.88546 -3.179182,0.79311 -3.820845,-0.19831 z"
     id="path369"
     inkscape:connector-curvature="0" />
  <path
     style="fill:#ffffff;stroke-width:0.67567569"
     d="m 95.046602,59.681397 c -2.169349,-0.656982 -3.228242,-3.503824 -2.168434,-5.82985 0.751463,-1.649281 1.015168,-1.716412 6.742481,-1.716412 3.734991,0 6.263161,0.302732 6.771241,0.810811 0.9335,0.933496 1.10136,5.686627 0.22006,6.231297 -1.04766,0.647491 -9.828185,1.03025 -11.565348,0.504154 z"
     id="path371"
     inkscape:connector-curvature="0" />
  <path
     style="fill:#ffffff;stroke-width:0.67567569"
     d="m 94.364865,80.318978 c -1.073743,-0.540492 -1.768522,-1.536464 -1.906931,-2.733602 -0.348431,-3.013681 0.86609,-3.828619 5.70588,-3.828619 h 4.309156 v 3.016767 c 0,2.291066 -0.31439,3.185025 -1.30693,3.716217 -1.758833,0.941299 -4.740681,0.866431 -6.801175,-0.170763 z"
     id="path373"
     inkscape:connector-curvature="0" />
  <path
     style="fill:#ffffff;stroke-width:0.67567569"
     d="m 94.364865,101.30797 c -2.036121,-1.07681 -2.55886,-3.949882 -1.001934,-5.506808 0.837101,-0.837101 2.413285,-1.095998 6.624521,-1.088113 3.039338,0.0057 5.882018,0.236777 6.317088,0.513525 1.275,0.811041 1.72013,3.754567 0.75937,5.021496 -1.19796,1.57972 -10.282437,2.33794 -12.699045,1.0599 z"
     id="path375"
     inkscape:connector-curvature="0" />
  <path
     style="fill:#ffffff;stroke-width:0.67567569"
     d="m 111.25676,101.64264 c -0.55744,-0.21219 -1.2369,-0.72028 -1.50993,-1.12909 -0.66047,-0.988934 -0.56834,-32.801464 0.1,-34.511993 0.52011,-1.331258 0.52467,-1.331258 1.21219,0 0.37956,0.734954 1.40764,3.464659 2.28461,6.066011 1.43486,4.256175 1.59625,5.932877 1.61194,16.746415 0.0145,9.959089 -0.1561,12.126597 -0.99607,12.658577 -1.1253,0.71268 -1.25574,0.72089 -2.7027,0.17008 z"
     id="path377"
     inkscape:connector-curvature="0" />
  <path
     style="fill:#ffffff;stroke-width:0.67567569"
     d="M 125.26285,97.608691 C 122.56922,91.575163 110.57361,56.786219 110.3985,54.5 c -0.13969,-1.823784 0.0607,-2.047945 1.9991,-2.235654 1.72234,-0.166791 2.39551,0.159439 3.35701,1.626871 1.51509,2.312319 15.93155,43.258604 16.03425,45.541215 0.066,1.467498 -0.2424,1.715868 -2.35008,1.892478 -2.36049,0.19779 -2.47341,0.0973 -4.17593,-3.716219 z"
     id="path379"
     inkscape:connector-curvature="0" />
  <path
     style="fill:#ffffff;stroke-width:0.67567569"
     d="m 129.55254,84.22973 c -2.2021,-5.791214 -2.32627,-6.58935 -2.60504,-16.743985 -0.16099,-5.864598 -0.0948,-11.717638 0.147,-13.006757 0.38318,-2.042555 0.69469,-2.343853 2.42324,-2.343853 1.49642,0 2.07483,0.373355 2.35526,1.52027 0.20445,0.836149 0.28625,9.425676 0.18179,19.087838 l -0.18993,17.567568 z"
     id="path381"
     inkscape:connector-curvature="0" />
  <path
     style="fill:#ffffff;stroke-width:0.67567569"
     d="m 138.06595,101.29054 c -1.05691,-0.77503 -1.13712,-3.042872 -0.97373,-27.533783 l 0.17805,-26.689189 2.24008,-0.215021 c 4.30846,-0.41356 4.17884,-1.272163 4.17884,27.679342 v 26.285341 l -1.73318,0.65895 c -2.22143,0.84459 -2.50347,0.83113 -3.89006,-0.18564 z"
     id="path383"
     inkscape:connector-curvature="0" />
  <path
     style="fill:#ffffff;stroke-width:0.67567569"
     d="m 147.57432,54.108041 c -1.3056,-0.760443 -1.63107,-4.946578 -0.52113,-6.702636 0.79855,-1.263401 10.9187,-1.81596 13.69681,-0.747843 1.64503,0.632473 1.85811,1.062262 1.85811,3.747888 0,2.307599 -0.31274,3.200864 -1.30693,3.732939 -1.6769,0.897446 -12.17377,0.874239 -13.72686,-0.03035 z"
     id="path385"
     inkscape:connector-curvature="0" />
  <path
     style="fill:#ffffff;stroke-width:0.67567569"
     d="m 146.39189,74.477965 c 0,-2.786236 0.23138,-3.406284 1.41079,-3.780614 1.75357,-0.55656 7.81585,-0.542618 8.72629,0.02007 0.37055,0.229014 0.67373,1.918715 0.67373,3.754891 v 3.338502 h -5.4054 -5.40541 z"
     id="path387"
     inkscape:connector-curvature="0" />
  <path
     style="fill:#ffffff;stroke-width:0.67567569"
     d="m 165.29409,100.40196 c -0.72108,-1.896582 -0.75768,-27.502072 -0.0502,-35.091149 l 0.44094,-4.72973 2.81236,8.783784 c 2.67728,8.361917 2.83419,9.320477 3.26704,19.958404 l 0.45469,11.174621 -1.79668,0.81862 c -2.82827,1.28864 -4.39691,1.0089 -5.1282,-0.91455 z"
     id="path389"
     inkscape:connector-curvature="0" />
  <path
     style="fill:#ffffff;stroke-width:0.67567569"
     d="m 179.37613,91.971088 c -0.64449,-0.375959 -2.02414,-3.514818 -3.18357,-7.242968 -9.72042,-31.256003 -11.15294,-36.337291 -10.52885,-37.347086 0.22139,-0.358217 1.40165,-0.651304 2.6228,-0.651304 4.02003,0 4.02122,0.0028 12.73898,29.994983 3.93151,13.525794 4.05074,14.15499 2.84892,15.033784 -1.46546,1.071574 -2.90885,1.139789 -4.49828,0.212591 z"
     id="path391"
     inkscape:connector-curvature="0" />
  <path
     style="fill:#ffffff;stroke-width:0.67567569"
     d="m 185.51632,80.862322 c -2.41543,-5.460494 -2.32673,-6.6197 1.4209,-18.568543 4.08496,-13.02439 4.87244,-14.730063 7.05333,-15.277432 1.9994,-0.501818 4.42741,0.199112 4.43108,1.279185 0.003,0.748394 -2.93904,10.654513 -4.04943,13.6369 -0.27672,0.743244 -1.49143,4.695946 -2.69936,8.783784 -1.20794,4.087838 -2.46463,7.960402 -2.79265,8.605697 -0.32802,0.645295 -0.59641,1.767554 -0.59641,2.493907 0,2.606372 -1.40723,2.121525 -2.76746,-0.953498 z"
     id="path393"
     inkscape:connector-curvature="0" />
  <path
     style="fill:#ffffff;stroke-width:0.67567569"
     d="m 193.52027,101.40534 c -1.05363,-0.61369 -1.18243,-1.955185 -1.18243,-12.315691 0,-11.392978 0.0468,-11.772769 2.32295,-18.87045 1.27763,-3.983906 2.63663,-7.782262 3.02,-8.440791 0.49031,-0.842221 0.70313,4.841203 0.71758,19.163058 l 0.0206,20.360384 -1.52027,0.40742 c -1.938,0.51936 -1.96978,0.5165 -3.37838,-0.30393 z"
     id="path395"
     inkscape:connector-curvature="0" />
  <rect
     style="fill:#333333;stroke-width:1.00220346"
     id="rect92"
     width="153.82433"
     height="12.864865"
     x="49.989319"
     y="13.727466" />
  <rect
     style="fill:#333333"
     id="rect92-3"
     width="153.14865"
     height="12.864865"
     x="49.989319"
     y="114.1311" />
</svg>
