<?xml version="1.0" encoding="UTF-8" standalone="no"?>
<!-- Created with Inkscape (http://www.inkscape.org/) -->

<svg
   xmlns:dc="http://purl.org/dc/elements/1.1/"
   xmlns:cc="http://creativecommons.org/ns#"
   xmlns:rdf="http://www.w3.org/1999/02/22-rdf-syntax-ns#"
   xmlns:svg="http://www.w3.org/2000/svg"
   xmlns="http://www.w3.org/2000/svg"
   xmlns:sodipodi="http://sodipodi.sourceforge.net/DTD/sodipodi-0.dtd"
   xmlns:inkscape="http://www.inkscape.org/namespaces/inkscape"
   version="1.1"
   id="svg314"
   width="259"
   height="144"
   viewBox="0 0 259 144"
   sodipodi:docname="logo.svg"
   inkscape:version="0.92.3 (2405546, 2018-03-11)">
  <metadata
     id="metadata320">
    <rdf:RDF>
      <cc:Work
         rdf:about="">
        <dc:format>image/svg+xml</dc:format>
        <dc:type
           rdf:resource="http://purl.org/dc/dcmitype/StillImage" />
        <dc:title />
      </cc:Work>
    </rdf:RDF>
  </metadata>
  <defs
     id="defs318" />
  <sodipodi:namedview
     pagecolor="#ffffff"
     bordercolor="#666666"
     borderopacity="1"
     objecttolerance="10"
     gridtolerance="10"
     guidetolerance="10"
     inkscape:pageopacity="0"
     inkscape:pageshadow="2"
     inkscape:window-width="1600"
     inkscape:window-height="835"
     id="namedview316"
     showgrid="false"
     inkscape:zoom="1.48"
     inkscape:cx="129.5"
     inkscape:cy="72"
     inkscape:window-x="0"
     inkscape:window-y="0"
     inkscape:window-maximized="1"
     inkscape:current-layer="svg314" />
  <path
     style="fill:#000000;stroke-width:0.69393349"
     d="M 49.989317,77.215725 V 18.989697 h 77.111793 77.11178 V 77.215725 135.44176 H 127.10111 49.989317 Z m 11.572663,29.941715 1.527405,-0.78866 V 76.407032 46.44529 l -1.56212,-0.806601 c -0.859162,-0.443631 -2.466898,-0.57608 -3.572747,-0.294331 l -2.010623,0.512272 v 30.584161 30.584149 l 1.339781,0.35048 c 2.327657,0.60887 2.715252,0.58911 4.278304,-0.21798 z m 19.411426,-0.0347 c 1.258763,-0.9149 1.175602,-1.43809 -1.450147,-9.12263 C 78.732817,95.686738 77.549141,92.156396 76.892874,90.154871 76.236607,88.1534 74.611981,83.333161 73.282589,79.44329 l -2.417077,-7.072505 4.540116,-10.314436 c 2.497051,-5.67294 4.900755,-10.888959 5.341537,-11.591156 2.320889,-3.697354 -0.188039,-6.550258 -4.490541,-5.106185 -1.941214,0.651539 -2.575978,1.669605 -6.500879,10.426379 l -4.34961,9.704335 0.187431,8.086955 c 0.169209,7.300779 0.392534,8.676577 2.297238,14.152157 1.160389,3.335867 3.033375,8.923185 4.162178,12.416256 1.229869,3.80582 2.529637,6.62107 3.243291,7.02481 1.674005,0.94709 4.339695,0.92496 5.677133,-0.0473 z m 8.792491,-0.14698 c 1.022747,-1.38901 1.022747,-53.278787 0,-54.667775 -0.762724,-1.035854 -3.3413,-1.288551 -4.893597,-0.479565 -0.832709,0.433966 -0.941886,3.60258 -0.941886,27.33389 0,19.799639 0.187488,27.09764 0.714552,27.81345 0.922999,1.25354 4.197922,1.25354 5.120931,0 z m 17.458233,-0.41784 c 0.99237,-1.35031 0.91178,-5.87006 -0.12048,-6.757437 -0.46396,-0.398834 -3.69128,-0.730734 -7.171828,-0.737551 -6.90905,-0.01356 -7.81386,0.516489 -7.81386,4.577038 0,3.68251 1.52467,4.44574 8.308028,4.15882 3.73885,-0.15813 6.35311,-0.63532 6.79814,-1.24087 z m 7.11377,0.55118 c 1.06628,-0.77501 1.15151,-1.81056 1.1481,-13.95 -0.003,-10.051314 -0.21134,-13.653643 -0.89318,-15.429181 -0.48923,-1.274001 -0.88951,-2.661984 -0.88951,-3.084429 0,-0.422444 -0.67814,-2.781545 -1.50698,-5.242447 -1.26454,-3.754628 -1.64769,-4.315752 -2.38182,-3.488285 -0.7258,0.818052 -0.87487,4.349738 -0.87487,20.726149 0,19.715333 0.002,19.740973 1.33979,20.471433 1.81002,0.98809 2.69555,0.98737 4.05847,-0.003 z m 18.06191,-0.77907 c 0.36605,-0.49714 0.33082,-1.43877 -0.0977,-2.61309 -0.36851,-1.00975 -1.23519,-3.65548 -1.92596,-5.879385 -0.69076,-2.223918 -1.49463,-4.771298 -1.78637,-5.660865 -0.29174,-0.889566 -1.09561,-3.436957 -1.78637,-5.660865 -0.69076,-2.223908 -1.49115,-4.771299 -1.77862,-5.660865 -0.52969,-1.639078 -0.70746,-2.221119 -4.19923,-13.747812 -4.86937,-16.074335 -5.00114,-16.296314 -9.27815,-15.630512 -2.11709,0.329568 -2.45256,2.170363 -1.1258,6.177598 1.46795,4.433675 2.48676,7.593005 3.17877,9.857272 0.33982,1.111957 1.01928,3.295429 1.50988,4.852171 0.4906,1.556732 3.02748,9.744769 5.63751,18.195635 3.52043,11.398638 5.10675,15.631548 6.14489,16.396978 1.45386,1.07193 4.51292,0.72406 5.50718,-0.62625 z m 10.14444,0.82751 1.52741,-0.78866 -0.009,-29.335202 c -0.005,-16.134369 -0.20599,-29.744381 -0.44659,-30.244478 -0.67924,-1.411745 -3.92839,-2.077126 -5.69316,-1.165882 l -1.59209,0.822079 v 29.967796 29.967777 l 1.33978,0.73138 c 1.79339,0.97899 3.04288,0.9906 4.87376,0.0452 z m 27.98651,0 1.52741,-0.78866 V 93.906447 c 0,-9.481933 -0.21273,-13.016309 -0.88952,-14.77869 -0.48923,-1.274 -0.89117,-2.931725 -0.89318,-3.68384 -0.002,-0.752124 -0.27162,-1.592407 -0.59913,-1.867294 -0.3275,-0.274897 -0.59546,-1.044165 -0.59546,-1.709483 0,-0.665331 -0.49642,-2.736347 -1.10317,-4.602275 -0.60673,-1.865918 -1.27677,-4.059691 -1.48895,-4.875052 -0.21219,-0.815351 -0.7206,-1.331051 -1.12981,-1.146003 -1.02537,0.463706 -1.39069,43.94384 -0.38307,45.59273 0.79175,1.29563 3.37786,1.44504 5.55488,0.32092 z m 26.98323,0.27899 1.33978,-0.48763 V 84.447413 c 0,-13.504719 -0.22856,-22.693264 -0.57168,-22.981259 -0.63455,-0.532619 -2.70332,4.789306 -3.30289,8.496732 -0.2119,1.310175 -0.63259,2.589752 -0.9349,2.843498 -0.30231,0.253735 -0.5513,1.076716 -0.55331,1.828831 -0.002,0.752122 -0.40396,2.409849 -0.89319,3.683838 -0.68037,1.77171 -0.88952,5.343116 -0.88952,15.189096 0,12.593661 0.0291,12.888581 1.33978,13.604101 1.62593,0.88757 2.70312,0.96578 4.46593,0.3242 z M 185.06004,95.113339 c 0.10974,-1.053482 -1.41654,-7.785871 -3.39173,-14.960851 -1.9752,-7.17499 -3.7694,-14.049633 -3.98711,-15.276989 -0.21771,-1.227347 -0.6341,-2.431541 -0.92533,-2.675987 -0.29123,-0.244436 -0.53115,-1.059798 -0.53317,-1.811922 -0.002,-0.752113 -0.36257,-2.30152 -0.80123,-3.443124 -0.43865,-1.141599 -0.99073,-3.120922 -1.22683,-4.398494 -0.23611,-1.277572 -0.96562,-3.345816 -1.62115,-4.596096 -1.03241,-1.969092 -1.58729,-2.273238 -4.1473,-2.273238 -2.04032,0 -3.05862,0.365199 -3.28868,1.179436 -0.28866,1.021586 1.89958,10.227466 4.23696,17.824891 0.41053,1.334351 1.21493,4.24565 1.78758,6.469558 0.57265,2.223918 1.41048,5.190217 1.86184,6.591783 0.45136,1.401563 0.82065,3.057365 0.82065,3.679556 0,0.622193 0.22541,1.476979 0.50091,1.899522 0.27549,0.422542 1.10599,3.315647 1.84555,6.429122 0.73956,3.113484 1.78694,6.131769 2.32752,6.707298 0.56773,0.604447 2.11465,0.94602 3.66243,0.808693 2.30442,-0.20445 2.7075,-0.505899 2.87909,-2.153158 z M 132.84432,73.056633 c -0.0974,-21.736269 -0.0915,-21.694354 -3.06365,-21.694354 -3.06562,0 -3.26039,0.707016 -3.47172,12.602256 -0.19353,10.89475 0.27453,15.950793 1.93797,20.933819 3.17997,9.525952 3.47882,10.216636 4.07203,9.410976 0.39793,-0.540425 0.58439,-8.083264 0.52537,-21.252697 z m 55.88667,11.330528 c 0,-0.778302 0.26795,-1.640001 0.59546,-1.914897 0.3275,-0.274888 0.5971,-1.115171 0.59913,-1.867284 0.002,-0.752124 0.40395,-2.409849 0.89318,-3.68384 0.48924,-1.273999 0.89861,-2.72965 0.90973,-3.234784 0.0111,-0.505135 0.53793,-2.374076 1.1707,-4.15321 0.63278,-1.779123 1.1596,-3.85015 1.17072,-4.602266 0.0111,-0.752123 0.28816,-1.592396 0.61566,-1.867293 0.3275,-0.274886 0.60455,-1.115168 0.61566,-1.867292 0.0111,-0.752115 0.53793,-2.823131 1.17071,-4.602266 0.63279,-1.779128 1.1596,-3.694607 1.17071,-4.256621 0.0112,-0.562013 0.33045,-1.696523 0.70964,-2.521134 0.37919,-0.82461 0.52158,-2.093368 0.31642,-2.819458 -0.54,-1.911101 -5.8382,-1.833686 -7.12952,0.104168 -0.52202,0.783388 -2.67407,7.743502 -4.78235,15.466922 l -3.83323,14.042584 1.39643,4.839316 c 0.76806,2.661632 1.72568,5.378066 2.12804,6.036521 0.63995,1.047208 0.82879,1.016709 1.50726,-0.243435 0.4266,-0.792345 0.77565,-2.077431 0.77565,-2.855733 z M 102.35512,83.3374 c 0.38873,-0.636137 0.62251,-2.546674 0.51951,-4.245653 l -0.18729,-3.089043 -3.852108,-0.245359 c -5.35955,-0.341384 -6.39176,0.142512 -6.89116,3.230513 -0.340241,2.103825 -0.171303,2.853209 0.91172,4.044234 1.69638,1.865546 8.413948,2.081446 9.499328,0.305308 z m 55.45282,-5.927004 c 0.47281,-4.811057 -0.53227,-5.855517 -5.63477,-5.855517 -5.37392,0 -6.31514,0.767601 -6.31514,5.150193 0,1.911736 0.18798,3.731191 0.41773,4.043213 0.22975,0.312024 2.84232,0.463657 5.80571,0.336956 l 5.38799,-0.230366 z M 106.59696,60.204703 c 0.83875,-0.609633 1.15176,-1.700814 1.15176,-4.015021 0,-4.270377 -0.98665,-4.852169 -8.228768,-4.852169 -5.64063,0 -5.97144,0.09574 -6.88692,1.993285 -1.263553,2.619007 -1.213175,3.804668 0.25244,5.941171 1.08487,1.581468 1.81801,1.769885 6.88692,1.769885 3.120038,0 6.191098,-0.376716 6.824568,-0.837151 z m 55.37758,-5.660864 c 0.87615,-0.636823 1.15176,-1.705945 1.15176,-4.467838 0,-4.670191 -0.95278,-5.208046 -9.22583,-5.208046 -7.11403,0 -8.04244,0.655509 -8.04244,5.678441 0,2.134316 0.33303,3.400272 1.04205,3.96112 1.36982,1.083564 13.59312,1.113015 15.07446,0.03633 z"
     id="path324"
     inkscape:connector-curvature="0" />
  <path
     style="fill:#333333;stroke-width:0.71359873"
     d="M 50.445946,77.189092 V 19.534851 h 76.689194 76.68918 V 77.189092 134.84334 H 127.13514 50.445946 Z m 12.837838,-0.746744 c 0,-33.81111 0.38663,-31.283391 -4.784991,-31.283391 h -2.647442 v 31.226427 31.226426 l 1.858108,0.25779 c 1.02196,0.14177 2.694257,-0.0386 3.716217,-0.40051 l 1.858108,-0.65827 z m 17.256443,31.258242 c 2.276001,-0.96519 2.354168,-0.58977 -4.180178,-20.07598 L 71.266828,72.436019 75.890171,62.000502 c 6.958858,-15.707097 6.538603,-14.328432 4.918538,-16.135456 -1.088719,-1.214362 -1.871312,-1.444812 -3.548673,-1.044985 -1.18356,0.282121 -2.489952,0.815536 -2.903093,1.185366 -0.41314,0.36983 -2.653772,4.77819 -4.979182,9.796356 l -4.228016,9.123941 0.315308,8.76946 c 0.297706,8.279916 0.507574,9.345545 3.759469,19.089164 1.894287,5.675836 3.912885,11.330732 4.485771,12.566422 1.357292,2.92759 3.626508,3.70831 6.829934,2.34982 z m 8.732045,-0.25188 C 90.41922,106.51326 90.541353,104.7784 90.797661,85.781262 90.9509,74.423447 90.828031,62.078406 90.524625,58.347837 L 89.972973,51.564984 87.438,51.330998 c -2.241968,-0.206939 -2.618752,0.01083 -3.259801,1.884127 -0.481263,1.406362 -0.65115,10.801326 -0.505567,27.958693 0.186386,21.966272 0.371217,25.947652 1.232773,26.554632 1.422713,1.00234 2.911887,0.90694 4.366867,-0.27974 z m 17.380868,-0.18704 c 0.62679,-0.20606 1.27231,-1.12169 1.43449,-2.03474 l 0.29487,-1.66008 0.51598,1.75353 c 0.28378,0.96446 1.25445,2.06671 2.15704,2.44947 2.60297,1.10386 4.10333,-0.29714 4.64673,-4.33903 0.74502,-5.541419 -0.17859,-24.248612 -1.38862,-28.125853 -2.55231,-8.178224 -3.21965,-9.797453 -4.03786,-9.797453 -1.34006,0 -1.69955,4.307307 -1.79266,21.479031 -0.0472,8.704662 -0.22819,15.213895 -0.40221,14.464965 -0.45842,-1.972985 -2.98929,-2.783386 -8.692454,-2.783386 -4.12268,0 -5.265925,0.270312 -6.374932,1.507296 -2.332652,2.60184 -1.401121,6.90429 1.689189,7.80183 1.448545,0.42072 10.063157,-0.0951 11.950437,-0.71558 z m 35.58387,0.37653 2.12785,-0.82738 V 77.918079 c 0,-16.949051 -0.27239,-29.691887 -0.65895,-30.825932 -0.53123,-1.558506 -1.10983,-1.93319 -2.98527,-1.93319 -4.79725,0 -4.46388,-2.337052 -4.46388,31.294314 v 30.379389 l 1.8581,0.75697 c 1.02196,0.41631 1.88875,0.78373 1.92621,0.81646 0.0374,0.0327 1.02562,-0.31283 2.19594,-0.76789 z m 27.70271,0 2.12785,-0.82738 V 93.971522 c 0,-11.634228 -0.4442,-16.105009 -2.04182,-20.550679 -0.29792,-0.829015 -1.23205,-3.966084 -2.07586,-6.971267 -0.8438,-3.00518 -1.9028,-5.463964 -2.35333,-5.463964 -1.07114,0 -1.90947,19.234888 -1.5144,34.746796 0.33813,13.276262 0.65847,13.927362 5.85756,11.905792 z m 28.31028,0.084 c 0.65678,-0.007 0.84229,-4.99621 0.83425,-22.431381 -0.005,-12.331602 -0.27707,-22.890841 -0.60305,-23.464976 -0.82686,-1.456281 -1.68561,0.511964 -4.51128,10.339825 -2.26666,7.883588 -2.30776,8.262769 -2.30776,21.294385 0,13.009027 0.0297,13.284187 1.52027,14.104277 0.83615,0.46001 2.12838,0.68604 2.87162,0.50227 0.74325,-0.18376 1.73142,-0.33874 2.19595,-0.3444 z m -66.12371,-0.69532 c 1.27187,-0.8984 1.25812,-0.9521 -6.96596,-27.200026 -9.07807,-28.973507 -8.77237,-28.261884 -12.14074,-28.261884 -1.69072,0 -2.87591,0.43649 -3.32067,1.22295 -0.52556,0.929332 1.1601,7.151192 7.02095,25.914745 4.24191,13.58049 8.24019,25.663215 8.88506,26.850525 0.9091,1.67376 1.66806,2.15613 3.37838,2.14718 1.21324,-0.005 2.62758,-0.30941 3.14298,-0.67349 z m 52.87014,-10.783964 c 0.65438,-1.181009 0.21779,-3.524921 -2.9174,-15.662391 -7.02744,-27.205789 -9.02394,-33.675067 -10.70154,-34.676512 -1.73053,-1.033029 -4.22924,-0.930848 -5.65402,0.231211 -1.13046,0.921997 -1.13588,1.239302 -0.0976,5.708699 0.60468,2.602843 2.61713,10.218161 4.47211,16.922934 8.09257,29.25036 7.62345,27.822035 9.40198,28.626263 1.42821,0.645818 4.90432,-0.08162 5.49643,-1.150204 z M 132.86916,74.739729 c -0.005,-11.088078 -0.19257,-20.923215 -0.41665,-21.855855 -0.32146,-1.337926 -0.89329,-1.695715 -2.7102,-1.695715 -3.40588,0 -3.782,1.84318 -3.46021,16.957131 0.25062,11.770717 0.42646,13.271467 2.16351,18.46443 2.31006,6.905944 2.94135,8.290153 3.78086,8.290153 0.40274,0 0.64838,-7.705488 0.64269,-20.160144 z m 56.0903,10.208419 c 0,-0.755414 0.26673,-1.962379 0.59273,-2.682142 0.32601,-0.719764 0.90705,-2.495661 1.29122,-3.946438 0.38416,-1.450776 1.59816,-5.85963 2.69779,-9.797453 1.09961,-3.937823 2.8285,-10.135885 3.84198,-13.773473 1.01347,-3.637589 1.67413,-7.103694 1.46814,-7.702456 -0.51263,-1.490051 -3.35633,-2.175993 -5.63989,-1.360423 -1.72197,0.614996 -2.19338,1.6931 -5.38722,12.3204 -5.32764,17.727386 -5.45138,18.557316 -3.61389,24.23787 2.0094,6.211965 2.70817,7.190899 3.869,5.420173 0.48407,-0.738416 0.88014,-1.960641 0.88014,-2.716058 z m -86.382,-1.484294 c 0.32197,-0.549565 0.50619,-2.525352 0.40938,-4.390637 l -0.17603,-3.391424 -4.48344,-0.220879 c -5.432874,-0.267656 -6.847053,0.820233 -6.532066,5.024931 0.176807,2.360177 0.52689,2.860191 2.569561,3.670061 2.797049,1.108961 7.383885,0.72244 8.212595,-0.692052 z m 55.30092,-6.124032 c 0,-2.196889 -0.36487,-4.401317 -0.81081,-4.898724 -0.46683,-0.520706 -2.70271,-0.904381 -5.27027,-0.904381 -2.56757,0 -4.80344,0.383675 -5.27027,0.904381 -0.44595,0.497407 -0.81081,2.701835 -0.81081,4.898724 v 3.994348 h 6.08108 6.08108 z m -50.8446,-17.302263 c 0.46453,-0.409094 0.8446,-2.216491 0.8446,-4.016437 0,-4.248768 -1.01092,-4.832963 -8.363214,-4.832963 -5.175257,0 -5.854378,0.167255 -6.801177,1.674994 -2.412905,3.842454 -0.667884,7.77206 3.677903,8.282257 3.438094,0.403632 9.661228,-0.244214 10.641888,-1.107851 z m 54.51683,-5.062494 c 1.53514,-0.651017 1.73317,-1.157142 1.73317,-4.429621 0,-4.981191 -0.86546,-5.624529 -7.99929,-5.946251 -7.89357,-0.355984 -9.16206,0.406967 -9.43496,5.674809 -0.18253,3.52332 -0.0372,4.022834 1.35135,4.644232 2.09081,0.935679 12.18309,0.975648 14.34973,0.05683 z"
     id="path363"
     inkscape:connector-curvature="0" />
  <path
     style="fill:#ffffff;stroke-width:0.71359873"
     d="m 75.224999,106.0162 c -0.83098,-0.93262 -3.152752,-6.613267 -5.159493,-12.623627 -3.549719,-10.631716 -3.655113,-11.17307 -3.888211,-19.97173 l -0.239592,-9.043803 3.929961,-8.225835 c 4.254878,-8.905924 6.453096,-11.478209 9.161151,-10.720095 0.920415,0.257668 1.826996,0.914709 2.014625,1.46009 0.18763,0.545382 -2.115151,6.43357 -5.11729,13.084868 l -5.458435,12.093267 5.13294,15.371934 c 6.538256,19.580531 6.27993,18.499271 4.651912,19.471101 -2.027764,1.21046 -3.362565,0.97254 -5.027568,-0.89617 z"
     id="path365"
     inkscape:connector-curvature="0" />
  <path
     style="fill:#ffffff;stroke-width:0.71359873"
     d="m 57.709459,107.19241 c -1.101566,-0.32108 -1.182432,-2.43129 -1.182432,-30.855562 V 45.825942 l 2.871622,0.231747 2.871621,0.231746 0.176684,29.972955 0.176685,29.97297 -1.740941,0.73827 c -0.957518,0.40607 -1.79716,0.69895 -1.865873,0.65088 -0.06871,-0.0481 -0.657028,-0.24253 -1.307366,-0.4321 z"
     id="path367"
     inkscape:connector-curvature="0" />
  <path
     style="fill:#ffffff;stroke-width:0.71359873"
     d="M 85.114201,106.76986 C 84.464366,105.64995 83.9658,57.951617 84.566248,54.346593 c 0.378595,-2.273049 0.60651,-2.473305 2.573218,-2.26095 l 2.157831,0.232992 0.545677,5.652378 c 0.300121,3.108808 0.441162,15.253097 0.313424,26.987312 -0.192787,17.709705 -0.40032,21.453515 -1.221352,22.032725 -1.399962,0.98766 -3.179182,0.88465 -3.820845,-0.22119 z"
     id="path369"
     inkscape:connector-curvature="0" />
  <path
     style="fill:#ffffff;stroke-width:0.71359873"
     d="m 95.046602,60.358929 c -2.169349,-0.7328 -3.228242,-3.908175 -2.168434,-6.502629 0.751463,-1.839612 1.015168,-1.91449 6.742481,-1.91449 3.734991,0 6.263161,0.337668 6.771241,0.90438 0.9335,1.041224 1.10136,6.342877 0.22006,6.950404 -1.04766,0.722213 -9.828185,1.149144 -11.565348,0.562335 z"
     id="path371"
     inkscape:connector-curvature="0" />
  <path
     style="fill:#ffffff;stroke-width:0.71359873"
     d="m 94.364865,83.378135 c -1.073743,-0.602867 -1.768522,-1.713777 -1.906931,-3.049066 -0.348431,-3.361467 0.86609,-4.270451 5.70588,-4.270451 h 4.309156 v 3.364908 c 0,2.555461 -0.31439,3.552585 -1.30693,4.145078 -1.758833,1.049926 -4.740681,0.966418 -6.801175,-0.190469 z"
     id="path373"
     inkscape:connector-curvature="0" />
  <path
     style="fill:#ffffff;stroke-width:0.71359873"
     d="m 94.364865,106.7893 c -2.036121,-1.20108 -2.55886,-4.4057 -1.001934,-6.1423 0.837101,-0.933707 2.413285,-1.22248 6.624521,-1.213685 3.039338,0.0063 5.882018,0.264102 6.317088,0.572785 1.275,0.90464 1.72013,4.18786 0.75937,5.60098 -1.19796,1.76203 -10.282437,2.60775 -12.699045,1.18222 z"
     id="path375"
     inkscape:connector-curvature="0" />
  <path
     style="fill:#ffffff;stroke-width:0.71359873"
     d="m 111.25676,107.16259 c -0.55744,-0.23667 -1.2369,-0.8034 -1.50993,-1.25939 -0.66047,-1.10305 -0.56834,-36.586823 0.1,-38.494751 0.52011,-1.484888 0.52467,-1.484888 1.21219,0 0.37956,0.81977 1.40764,3.864489 2.28461,6.766044 1.43486,4.747347 1.59625,6.617545 1.61194,18.67899 0.0145,11.108387 -0.1561,13.526027 -0.99607,14.119417 -1.1253,0.79492 -1.25574,0.80408 -2.7027,0.18969 z"
     id="path377"
     inkscape:connector-curvature="0" />
  <path
     style="fill:#ffffff;stroke-width:0.71359873"
     d="m 125.26285,102.66312 c -2.69363,-6.72981 -14.68924,-45.53348 -14.86435,-48.083533 -0.13969,-2.034254 0.0607,-2.284284 1.9991,-2.493654 1.72234,-0.18604 2.39551,0.177838 3.35701,1.814616 1.51509,2.579166 15.93155,48.250751 16.03425,50.796781 0.066,1.63685 -0.2424,1.91388 -2.35008,2.11086 -2.36049,0.22063 -2.47341,0.10854 -4.17593,-4.14507 z"
     id="path379"
     inkscape:connector-curvature="0" />
  <path
     style="fill:#ffffff;stroke-width:0.71359873"
     d="m 129.55254,87.740196 c -2.2021,-6.459534 -2.32627,-7.349777 -2.60504,-18.67628 -0.16099,-6.541387 -0.0948,-13.069881 0.147,-14.507767 0.38318,-2.27827 0.69469,-2.614339 2.42324,-2.614339 1.49642,0 2.07483,0.41644 2.35526,1.695713 0.20445,0.932641 0.28625,10.513422 0.18179,21.290619 l -0.18993,19.594906 z"
     id="path381"
     inkscape:connector-curvature="0" />
  <path
     style="fill:#ffffff;stroke-width:0.71359873"
     d="m 138.06595,106.76986 c -1.05691,-0.86448 -1.13712,-3.39402 -0.97373,-30.711242 l 0.17805,-29.769183 2.24008,-0.239837 c 4.30846,-0.461284 4.17884,-1.418972 4.17884,30.873604 v 29.318728 l -1.73318,0.735 c -2.22143,0.94205 -2.50347,0.92705 -3.89006,-0.20707 z"
     id="path383"
     inkscape:connector-curvature="0" />
  <path
     style="fill:#ffffff;stroke-width:0.71359873"
     d="m 147.57432,54.142394 c -1.3056,-0.848199 -1.63107,-5.517425 -0.52113,-7.476135 0.79855,-1.409201 10.9187,-2.025526 13.69681,-0.834146 1.64503,0.70546 1.85811,1.184849 1.85811,4.180402 0,2.573902 -0.31274,3.570251 -1.30693,4.16373 -1.6769,1.001013 -12.17377,0.975128 -13.72686,-0.03386 z"
     id="path385"
     inkscape:connector-curvature="0" />
  <path
     style="fill:#ffffff;stroke-width:0.71359873"
     d="m 146.39189,76.863055 c 0,-3.107775 0.23138,-3.799377 1.41079,-4.216906 1.75357,-0.620787 7.81585,-0.605237 8.72629,0.02239 0.37055,0.255442 0.67373,2.140139 0.67373,4.188213 v 3.723774 h -5.4054 -5.40541 z"
     id="path387"
     inkscape:connector-curvature="0" />
  <path
     style="fill:#ffffff;stroke-width:0.71359873"
     d="m 165.29409,105.77875 c -0.72108,-2.11547 -0.75768,-30.675885 -0.0502,-39.14076 l 0.44094,-5.275553 2.81236,9.797453 c 2.67728,9.326903 2.83419,10.396082 3.26704,22.261653 l 0.45469,12.464197 -1.79668,0.9131 c -2.82827,1.43733 -4.39691,1.12532 -5.1282,-1.02009 z"
     id="path389"
     inkscape:connector-curvature="0" />
  <path
     style="fill:#ffffff;stroke-width:0.71359873"
     d="m 179.37613,96.374926 c -0.64449,-0.419346 -2.02414,-3.920438 -3.18357,-8.078824 -9.72042,-34.863019 -11.15294,-40.5307 -10.52885,-41.657027 0.22139,-0.399557 1.40165,-0.726465 2.6228,-0.726465 4.02003,0 4.02122,0.0031 12.73898,33.456473 3.93151,15.086703 4.05074,15.788508 2.84892,16.768719 -1.46546,1.195236 -2.90885,1.271321 -4.49828,0.237124 z"
     id="path391"
     inkscape:connector-curvature="0" />
  <path
     style="fill:#ffffff;stroke-width:0.71359873"
     d="m 185.51632,83.984182 c -2.41543,-6.090649 -2.32673,-7.38363 1.4209,-20.711396 4.08496,-14.527436 4.87244,-16.429947 7.05333,-17.040484 1.9994,-0.559728 4.42741,0.22209 4.43108,1.426806 0.003,0.83476 -2.93904,11.884068 -4.04943,15.210629 -0.27672,0.829018 -1.49143,5.237871 -2.69936,9.797455 -1.20794,4.559584 -2.46463,8.87905 -2.79265,9.598814 -0.32802,0.719763 -0.59641,1.971533 -0.59641,2.781709 0,2.907153 -1.40723,2.366354 -2.76746,-1.063533 z"
     id="path393"
     inkscape:connector-curvature="0" />
  <path
     style="fill:#ffffff;stroke-width:0.71359873"
     d="m 193.52027,106.89792 c -1.05363,-0.68453 -1.18243,-2.18082 -1.18243,-13.736959 0,-12.707755 0.0468,-13.131373 2.32295,-21.048143 1.27763,-4.443659 2.63663,-8.680355 3.02,-9.414878 0.49031,-0.939417 0.70313,5.399889 0.71758,21.374519 l 0.0206,22.710021 -1.52027,0.45444 c -1.938,0.57929 -1.96978,0.57609 -3.37838,-0.339 z"
     id="path395"
     inkscape:connector-curvature="0" />
  <rect
     style="fill:#333333;stroke-width:1.30718338"
     id="rect92"
     width="153.82433"
     height="21.886005"
     x="49.989319"
     y="1.5653034" />
  <rect
     style="fill:#333333;stroke-width:1.37605631"
     id="rect92-3"
     width="154.5"
     height="24.146952"
     x="49.989319"
     y="121.09225" />
</svg>
